<svg width="1592" height="962" xmlns="http://www.w3.org/2000/svg">
    <style>
        @keyframes a1 {
        15% {transform: translate(1%, -5%)}
        50% {transform: translate(3%, -6%)}
        85% {transform: translate(2%, -4%)}}
        @keyframes a2 {
        50% {transform: translate(-1%, -2%)}
        }
        @keyframes a3 {
        50% {transform: translate(1%, -3%)}
        }
        .a1 {animation:a1 10s infinite linear;}
        .a2 {animation:a2 5s infinite linear;}
        .a3 {animation:a3 5s infinite;}
    </style>
    <g fill-rule="nonzero" fill="none">
        <g class="a1" opacity=".366">
            <path fill="#F8FDF5" d="M273.057 921.286l-22.606-40.81 46.146 1.879 22.6 40.795z"/>
            <path fill="#F7FBF3" d="M273.05 921.282l-25.536 39.005 46.034 1.51 25.575-38.724z"/>
            <path fill="#FAFDF7" d="M224.771 919.157l25.682-38.68 22.596 40.802-25.429 38.99z"/>
        </g>
        <g opacity=".53">
            <path fill="#F5FAF1" d="M1048.486 69.65L1082.301.372l41.194 64.241-33.8 69.258z"/>
            <path fill="#F4F8EF" d="M1048.485 69.636l-76.997 2.404 41.584 63.743 76.657-2.086z"/>
            <path fill="#F7FBF3" d="M1005.603 2.273l76.698-1.9-33.81 69.26-76.88 2.534z"/>
        </g>
        <g class="a2" opacity=".813">
            <path fill="#F0FBE6" d="M1546.981 766.076l44.58 3.13-25.583 36.092-44.566-3.126z"/>
            <path fill="#EDF9E2" d="M1546.99 766.074l-18.014-40.863-25.23 36.192 17.768 40.75z"/>
            <path fill="#F3FDEA" d="M1573.884 728.396l17.676 40.811-44.568-3.132-18.057-40.771z"/>
        </g>
        <g class="a3" opacity=".834">
            <path fill="#E7F4DC" d="M136.624 362.27l101.049-100.99 33.422 137.42-101.01 100.962z"/>
            <path fill="#E5F0DC" d="M136.632 362.243L.265 320.003 34.669 456.78l135.58 42.596z"/>
            <path fill="#EDF8E4" d="M102.135 218.336l135.537 42.948-101.031 100.958L.403 320.296z"/>
        </g>
    </g>
</svg>